<?xml version="1.0" encoding="UTF-8"?>
<!DOCTYPE svg PUBLIC "-//W3C//DTD SVG 1.1//EN" "http://www.w3.org/Graphics/SVG/1.1/DTD/svg11.dtd">
<!-- Creator: CorelDRAW -->
<svg xmlns="http://www.w3.org/2000/svg" xml:space="preserve" width="53mm" height="53mm" version="1.1" style="shape-rendering:geometricPrecision; text-rendering:geometricPrecision; image-rendering:optimizeQuality; fill-rule:evenodd; clip-rule:evenodd"
viewBox="0 0 5300 5300"
 xmlns:xlink="http://www.w3.org/1999/xlink"
 xmlns:xodm="http://www.corel.com/coreldraw/odm/2003">
 <defs>
  <style type="text/css">
   <![CDATA[
    .fil0 {fill:#FEFEFE}
   ]]>
  </style>
 </defs>
 <g id="Warstwa_x0020_1">
  <metadata id="CorelCorpID_0Corel-Layer"/>
  <path class="fil0" d="M3705.29 4733.34c-1.25,-9.2 8.3,-55.48 11.69,-67.51 9.35,-33.2 9.86,-32.09 30.78,-57.37 100.15,-120.98 251.57,-34.05 259.75,104 8.4,141.64 -148.08,242.83 -249.59,134.22 -26.46,-28.31 -46.99,-71.87 -52.63,-113.34zm-1533.59 0c-1.26,-9.2 8.3,-55.48 11.69,-67.51 17.61,-62.51 70.91,-109.68 132.43,-114.39 85.12,-6.52 152.99,74.72 158.1,161.02 8.4,141.64 -148.08,242.83 -249.6,134.22 -13.95,-14.92 -23.83,-26.16 -32.1,-44.32 -2.46,-5.41 -20.14,-66.21 -20.52,-69.02zm-863.29 -3647.86l3564.85 0 -457.03 1812.39c-14.92,60.68 -59.78,206.04 -60.94,265.51l-2528.91 0c-1.18,-60.42 -234.61,-957.75 -255.1,-1037.59l-262.87 -1040.31zm-1279.68 -888.88c0,79.64 15.32,157.33 97.91,188.86 54.63,20.85 599.79,7.39 684.12,7.39l730.01 2888.74c14.6,63.1 -10.12,77.39 -53.1,177.88 -134.98,315.62 36.16,744.64 440.24,742.89 104.94,-0.45 209.94,-0.03 314.88,-0.03l0 11.54c-160.11,0 -375.78,230.51 -375.78,484.84 0,222.51 88.41,399.04 250.19,489.07 175.1,97.46 386.03,64.53 524.28,-93.63 42.26,-48.34 63.95,-70.9 92.53,-137.24 163.8,-380.25 -120.37,-743.04 -328.72,-743.04l1371.09 0c-160.11,0 -375.78,230.51 -375.78,484.84 0,222.51 88.41,399.04 250.19,489.07 478.34,266.21 879.92,-436.99 544.69,-815.36 -59.7,-67.37 -143.89,-158.55 -256.6,-158.55l0 -11.54c79.4,0 543.82,14.81 596.74,-14.36 109.73,-60.5 114.4,-245.45 6.61,-313.57 -55.77,-35.25 -490.65,-18.39 -572.88,-18.39l-1970.32 0.01c-93.95,0.26 -243.74,4.59 -243.74,-173.17 0,-81.56 37.41,-107.9 50.78,-173.16l2488.28 0c352.48,0 279.59,45.49 462.8,-686.07 53.89,-215.17 103.56,-416.72 157.93,-628.57 11.18,-43.55 313.65,-1215.13 313.65,-1271.19 0,-112.05 -62.04,-184.7 -132.04,-184.7l-3879.68 0 -140.45 -579.17c-17.29,-54.86 -62.84,-113.46 -123.61,-113.46l-792.19 0c-62.28,0 -132.03,79.28 -132.03,150.07z"/>
 </g>
</svg>
