<?xml version="1.0" encoding="UTF-8"?>
<!DOCTYPE svg PUBLIC "-//W3C//DTD SVG 1.1//EN" "http://www.w3.org/Graphics/SVG/1.1/DTD/svg11.dtd">
<!-- Creator: CorelDRAW -->
<svg xmlns="http://www.w3.org/2000/svg" xml:space="preserve" width="53mm" height="53mm" version="1.1" style="shape-rendering:geometricPrecision; text-rendering:geometricPrecision; image-rendering:optimizeQuality; fill-rule:evenodd; clip-rule:evenodd"
viewBox="0 0 5300 5300"
 xmlns:xlink="http://www.w3.org/1999/xlink"
 xmlns:xodm="http://www.corel.com/coreldraw/odm/2003">
 <defs>
  <style type="text/css">
   <![CDATA[
    .fil0 {fill:#D1401D}
   ]]>
  </style>
 </defs>
 <g id="Warstwa_x0020_1">
  <metadata id="CorelCorpID_0Corel-Layer"/>
  <path class="fil0" d="M4212.19 316.03c118.72,0 195.95,98.75 262.5,165.04 83.99,83.68 380.37,362.1 423.86,440.99 274.72,498.28 -183.21,1359.02 -401.39,1719.29 -114.71,189.41 -244.32,371.01 -381.12,544.51l-263.65 316.24c-81.68,97.36 -198.41,205.19 -290.2,289.78 -45.1,41.56 -69.44,74.29 -120.45,113.59 -26.45,20.39 -34.26,33.52 -58.28,53.65 -27.25,22.84 -39.67,32.76 -65.96,56.16l-263.33 204.84c-497.2,340.81 -1182.55,767.79 -1818.63,767.79 -307.89,0 -412.74,-172.65 -563.22,-322.46 -77.28,-76.94 -146.96,-146.54 -224.28,-223.44 -242.38,-241.09 -103.81,-358.68 81.56,-543.36 77.25,-76.96 147.02,-146.48 224.27,-223.44 77.24,-76.96 147.02,-146.48 224.26,-223.44 84.19,-83.87 154.01,-180.27 287.99,-180.27 143.39,0 403.4,305.43 537.73,439.26 129.44,128.95 189.41,183.57 389.4,68.03 80.45,-46.47 134,-66.1 216.59,-119.36 25.79,-16.63 45.92,-25.98 69.44,-42.55 45.36,-31.96 89.94,-62.03 136.82,-97.26 46.61,-35.02 82.95,-62.42 126.83,-97.09l579.83 -559.83c24.06,-25.17 29.57,-36.64 51.14,-60.76l153.82 -192.06c69.83,-92.73 121.16,-173.14 183.12,-274.59 167.89,-274.97 193.75,-393.2 -24.44,-561.04 -50.2,-38.62 -350.88,-334.88 -391.5,-412.3 -57.01,-108.66 -11.43,-215.65 58.21,-286.96 134.33,-137.56 266.61,-265.17 402.9,-400.95l151.39 -153.85c1.45,-1.51 3.54,-3.68 5.02,-5.16 1.49,-1.47 3.66,-3.56 5.17,-5 88.02,-83.94 172.51,-194 294.6,-194zm-33.63 -264.06l67.85 0c130.27,8.8 254.79,68.3 355.75,170.07 126.54,127.57 446.08,422.49 524.32,554.18 64.44,108.46 125.5,245.17 125.5,413.25 0,267.8 -0.98,312.06 -71.25,579.02 -138.19,525.04 -510.27,1169.54 -858.74,1592.09 -77.25,93.67 -195.46,246.38 -280.63,329.79l-178.32 187.97c-567.21,565.1 -1337.33,1083.15 -2132.23,1308.48 -121.07,34.32 -258.16,59.34 -396.16,65.15l-119.26 0c-155.12,-6.91 -305.88,-42.03 -430.52,-119.76 -162.12,-101.1 -186.42,-165.35 -280.61,-258.71l-209.48 -197.54c-37.16,-35.45 -153.9,-174.84 -180.78,-226.14 -82.13,-156.74 -85.93,-352.6 8.08,-500.15 85.28,-133.83 606.98,-640.81 733.52,-762.16 20.84,-19.99 25.01,-20.34 45.03,-36.39 45.66,-36.64 39.76,-46.47 121.01,-92.72 52.95,-30.16 150.84,-61.12 234.28,-61.12 190.75,0 287.55,88.17 404.76,185.81 16.46,13.71 26.13,24.94 41.25,40.15l328.74 332.63c235.17,-123.97 255.94,-131.05 471.86,-291.59l264.53 -223.96c117.84,-108.76 222.96,-201.7 330.97,-330.41 139.03,-165.65 302.91,-359.16 400.65,-555.52 20.08,-40.33 40,-82.24 61.09,-121.95 -30.55,-45.47 -116.12,-120.77 -160.55,-165.04 -234.56,-233.68 -400.12,-336.37 -400.12,-647.46 0,-78.62 42.12,-172.14 71.64,-223.16 64.78,-111.9 595.39,-619.1 720.94,-744.22 51.76,-51.59 95.21,-95.83 162.29,-132.85 73.53,-40.58 149.5,-62.65 224.59,-67.74z"/>
 </g>
</svg>
