<?xml version="1.0" encoding="UTF-8"?>
<!DOCTYPE svg PUBLIC "-//W3C//DTD SVG 1.1//EN" "http://www.w3.org/Graphics/SVG/1.1/DTD/svg11.dtd">
<!-- Creator: CorelDRAW -->
<svg xmlns="http://www.w3.org/2000/svg" xml:space="preserve" width="150mm" height="150mm" version="1.1" style="shape-rendering:geometricPrecision; text-rendering:geometricPrecision; image-rendering:optimizeQuality; fill-rule:evenodd; clip-rule:evenodd"
viewBox="0 0 15000 15000"
 xmlns:xlink="http://www.w3.org/1999/xlink"
 xmlns:xodm="http://www.corel.com/coreldraw/odm/2003">
 <defs>
  <style type="text/css">
   <![CDATA[
    .fil0 {fill:black}
   ]]>
  </style>
 </defs>
 <g id="Warstwa_x0020_1">
  <metadata id="CorelCorpID_0Corel-Layer"/>
  <g id="_1702134323920">
   <path class="fil0" d="M8151.18 14153c-870.02,0 -1100.53,-30.04 -1891,-225.85 -242.64,-60.1 -435.35,-125.25 -652.55,-194.19 -116.17,-36.87 -206.11,-57.39 -325.12,-98.24 -121,-41.54 -184.15,-71.9 -309.96,-113.42 -229.85,-75.84 -397.67,-142.77 -619.79,-226.94l-586.02 -260.73c-486.81,-245.38 -419.89,-229.43 -803.49,-466.61 -58.23,-36 -82.97,-44.22 -138.25,-87.55 -50.68,-39.71 -70.97,-60.33 -125.08,-100.72 -343.1,-256.02 -801.11,-700.78 -1051.75,-1065.1 -162.63,-236.38 -185.07,-245.71 -327.22,-519.52 -487.43,-938.89 -733.97,-2054.19 -733.97,-3132.8 0,-913.09 389.47,-2257.58 721.76,-3088.56 44.95,-112.42 77.25,-203.21 124.56,-298.81 301.08,-608.36 514.02,-1029.12 1009.67,-1558.77 475.42,-508.04 742.76,-777.53 1380.91,-1159.31 189.08,-113.11 345.91,-195.75 561.3,-285.44 690.39,-287.5 1852.98,-670.06 2619.55,-795.64 688.21,-112.74 1540.4,73.96 2158.27,303.98 93.24,34.71 200.76,74.25 306.93,116.44 116.42,46.27 194.12,88.7 294.02,129.36 842.47,342.87 1438.36,745.91 2129.32,1285.85 347.68,271.69 974.69,964.97 1214.32,1325.9 492.11,741.21 561.11,905.12 833.33,1706.89 322.42,949.6 338.47,2519.59 62.7,3541.71 -368.48,1365.76 -724.24,2114.12 -1574.31,3195.66 -237.75,302.5 -693.21,739.97 -1015.34,960.37 -673.49,460.8 -1043.93,647.13 -1869.36,896.67 -331.84,100.31 -1028.91,215.37 -1393.43,215.37zm-7931.13 -6406.99c0,493.88 97.99,1172.56 196.95,1581.2 126.62,522.88 237.63,893.08 435.89,1370.49 162.37,391.01 432.25,786.56 677,1101.15l433.04 470.16c921.44,921.68 2287.85,1486.25 3517.06,1845.62 1175.11,343.55 1359.28,461.74 2671.19,461.74 981.17,0 1907.58,-307.86 2728.44,-714.97 350,-173.59 763.35,-438.69 1032.56,-689.15l861.36 -860.34c323.15,-396.28 431.1,-565.96 703.2,-1018.5 571.4,-950.35 913.54,-2104.84 1061.7,-3228.44 191.7,-1453.76 -25.37,-2967.29 -779.35,-4233.4 -253.26,-425.28 -575.93,-865.54 -929.8,-1215.27l-210.42 -241.17c-214.69,-214.7 -693.52,-583.39 -947.3,-774.4 -811.76,-610.96 -2746.73,-1475.38 -3717.96,-1475.38 -948.91,0 -1118.13,42.66 -2053.29,261.13 -777.28,181.6 -1371.66,395.71 -2058.16,736.09 -594.46,294.74 -1254.15,827.11 -1682.95,1337.08 -259.64,308.78 -482.97,540.73 -697.32,939.71 -52.44,97.6 -100.82,184.47 -160.32,291.27 -39.61,71.1 -47.39,67.03 -84.52,141.28 -35.11,70.22 -41.14,106.61 -74.88,179.14 -54.69,117.57 -89.06,183.93 -139.96,311.64 -386.91,970.91 -782.16,2386.42 -782.16,3423.32z"/>
   <path class="fil0" d="M1828.86 7153.29c0,-1459.53 591,-2782.35 1451.24,-3883.22 75.54,-96.67 228.37,-248.35 320.07,-329.1 75.04,-66.07 107.12,-79.62 183.08,-155.61 345.61,-345.75 1536.57,-935 2000.09,-1019.95 1066.64,-195.48 1810.11,-218.78 2859.11,41.97 196.7,48.9 356.28,113.94 525.16,180.46 437.59,172.36 964.41,483.48 1330.29,758.33 357.64,268.66 420,332.21 751,660.24 703.97,697.64 1615.8,2598.87 1615.8,4000.9 0,953.15 -113.26,1572.88 -439.23,2383.24 -379.21,942.71 -800.76,1577.84 -1472.58,2253.07 -408.45,410.53 -992.62,745.89 -1535.62,948.15 -1345.33,501.13 -3249.11,0.38 -4446.07,-598.1l-495.09 -266.97c-361.86,-226.77 -759.19,-525.69 -1060.18,-830.88 -665.09,-674.39 -1224.81,-1850.32 -1415.76,-2789.71 -80.87,-397.86 -171.31,-938.61 -171.31,-1352.82zm-282.25 -28.23c0,974.68 294.68,1954.11 580.35,2665.49 152.49,379.7 459.34,987.91 711.46,1292.49 69.45,83.9 114.68,157.25 184.07,239.3l408.41 410.1c462.81,424.35 613.78,523.96 1162.7,841.26 274.88,158.89 300.24,151.69 547.27,271.24 111.73,54.08 171.89,82.65 292.61,130.76 1655.43,659.69 3293.89,897.2 4864.24,-6.67 1798.92,-1035.43 2933.9,-3449.83 2933.9,-5420.6 0,-959.57 -259.64,-1776.97 -532.23,-2459.58 -145,-363.09 -308.41,-674.04 -492.56,-1003.35 -364.63,-652.04 -832.96,-1149.29 -1426.66,-1593.37 -144.81,-108.32 -277.79,-201.44 -432.69,-301.15 -279.95,-180.21 -681.01,-369.25 -994.54,-501.37 -1562.59,-658.46 -3349.11,-405.69 -4833.67,335.86 -1769.13,883.69 -2972.66,3128.37 -2972.66,5099.59z"/>
   <path class="fil0" d="M7784.26 4387.27c-185.44,124.18 -113.25,112.9 -423.37,112.9 -227.98,0 -112.87,-369.93 -265.63,-552.89 -138.24,-165.57 -468.21,-40.01 -468.21,-350.3 0,-311.9 639.75,-693.77 1194,-431.93 247.42,116.88 389.96,372.1 225.82,553.05 -242.59,267.43 -262.61,57.55 -262.61,669.17zm-1383.01 -762.06c0,509.41 458.91,407.33 558.04,514.5 86.32,93.31 42.83,266.32 109,399.04 131.78,264.31 698.16,225.46 879,68 93.18,-81.12 119.79,-193.34 119.1,-360.72 -1.79,-437.99 282.36,-223.07 282.36,-677.27 0,-215.63 -165.8,-423.56 -289.82,-528.69 -540.74,-458.42 -1657.68,-63.42 -1657.68,585.14z"/>
   <path class="fil0" d="M9110.82 6278.32c0,-550.55 1185.43,-176.42 1185.43,620.95 0,544.44 -497.24,310.47 -592.71,310.47 -178.78,0 -276.26,254.02 -423.37,254.02 -157.94,0 -481.16,-290.59 -275.03,-500.82l75.13 -66c300.31,-301.6 30.55,-449.14 30.55,-618.62zm-254.02 -56.45c0,390.68 209.44,326.59 101.82,522.53 -66.84,121.69 -242.95,177.21 -242.95,380.66 0,265.57 325.61,620.95 592.72,620.95 235.27,0 282.3,-254.03 451.6,-254.03 261.2,0 369.12,64.84 545.11,-104.05 371.2,-356.22 234.43,-937.69 -128.36,-1272.34 -598.93,-552.45 -1319.94,-295.72 -1319.94,106.28z"/>
   <path class="fil0" d="M4594.88 7237.96c0,-491.83 1185.43,-277.28 1185.43,677.39 0,132.72 -127.6,310.47 -254.02,310.47 -197.87,0 -264.88,-96.27 -415.45,-22.3 -131.95,64.81 -194.33,219.88 -346.62,219.88 -145.59,0 -338.69,-193.1 -338.69,-338.7 0,-149.95 76.77,-137.36 161.99,-233.15 266.5,-299.55 7.36,-441.08 7.36,-613.59zm-254.03 0c0,224.94 141.13,219.95 141.13,423.37 0,69.48 -282.25,270.77 -282.25,423.37 0,211.81 266.82,620.94 620.94,620.94 126.9,0 239.5,-124.1 315.83,-192.38 200.47,-179.32 477.01,143.72 741.22,-246.47 259.63,-383.43 123.62,-904.11 -246.72,-1218.21 -582.88,-494.39 -1290.15,-298.83 -1290.15,189.38z"/>
   <path class="fil0" d="M7106.87 9552.38c0,-355.96 742.73,-587.07 1218.76,-230.89 168.37,125.98 248.92,210.19 248.92,428.47 0,203.83 -178.6,219.6 -321.1,299.84 -210.1,118.31 -106.96,271.59 -189.27,431.84 -60.89,118.54 -302.69,131.67 -450.66,60 -210.8,-102.11 -83.28,-238.5 -83.28,-424.76 0,-404.56 -423.37,-251.89 -423.37,-564.5zm-225.8 0c0,126.91 1.78,196.9 70.89,296.03 62.63,89.83 106.7,90.59 208.33,130.37 252.62,98.86 144.15,195.75 144.15,448.57 0,396.42 774.46,525.55 960.18,254.56 149.49,-218.13 -26.51,-346.9 233.82,-471.8 848.22,-406.94 -195.06,-1800.3 -1302.04,-1132.69 -103.6,62.48 -144.62,74.95 -215.46,179.68 -57.62,85.18 -99.87,165.1 -99.87,295.28z"/>
   <path class="fil0" d="M7389.12 12290.17c-203.14,0 -299.96,1.03 -395.15,-141.12 179.06,-338.4 613.06,-95.54 1153.85,-285.61 200.22,-70.37 309.88,-149.04 492.88,-240.96 110.94,-55.72 127.75,-80.57 221.33,-145.59 71.89,-49.95 144.88,-118.13 248.79,-118.13 112.08,0 543.02,416.97 -614.77,740.01 -292.47,81.61 -728.41,191.4 -1106.93,191.4zm-620.95 -197.57c0,319.31 318.85,414.48 593.62,424.72 228.18,8.5 658.46,-77.18 877.65,-138.88 363.22,-102.25 1238.3,-262.87 1238.3,-793.88 0,-219.46 -199.54,-683.02 -653.07,-314.38 -231.79,188.39 -498.69,367.14 -811.22,430.66 -252.58,51.34 -1245.28,-81.32 -1245.28,391.76z"/>
   <path class="fil0" d="M5046.47 3596.98c-65.57,0 -451.41,-213.85 104.52,-629.32 249.93,-186.79 665.72,-383.69 963.93,-503.75 330.33,-133 531.01,-211.55 850.83,-137.04 0,468.32 -676.36,217.76 -1261.8,713.93 -201.04,170.39 -560.18,556.18 -657.48,556.18zm0 225.8c149.6,0 200.28,-59.55 289.23,-162.37l211.71 -239.88c143.64,-143.65 310.27,-292.97 495.91,-379.05 224.61,-104.17 431.41,-118.09 685.28,-189.69 775.48,-218.71 503.58,-778.94 67.8,-778.94 -430.65,0 -1201.31,361.55 -1558.18,586.9 -224.6,141.81 -439.3,262.77 -542.92,530.37 -103.87,268.25 83.05,632.66 351.17,632.66z"/>
   <path class="fil0" d="M6711.72 7943.58c701,0 389.89,302.77 1548.33,137.09 312.41,-44.68 273.43,-155.97 596.75,-80.64 385.46,803.34 -1812.5,403.76 -2165.63,218.05 -144.74,-76.12 -236.29,-274.5 20.55,-274.5zm-395.14 56.45c0,688.66 1613.72,677.39 2145.07,677.39 791.19,0 789.23,-931.41 338.7,-931.41 -164.86,0 -437.52,134.72 -648.56,169.96 -285.16,47.61 -398.44,57.97 -689.82,-17.02 -347.82,-89.52 -666.65,-290.3 -968.32,-145.29 -91.41,43.93 -177.07,126.34 -177.07,246.37z"/>
   <path class="fil0" d="M8320.53 6560.57c0,252.85 -27.22,422.48 -231.45,615.3 -465.1,439.11 -1534.44,160.84 -1343.92,-777.19 67.84,-333.97 233.23,-584.29 583.01,-634.76 165.95,-23.95 342.14,15.21 485.54,89.81 211.8,110.19 506.82,397.99 506.82,706.84zm-1778.15 56.45c0,587.94 480.21,987.86 1016.08,987.86 517.79,0 987.87,-414.79 987.87,-931.41 0,-1178.62 -1626,-1649.82 -1920.23,-480.77 -14.26,56.66 -83.72,382.53 -83.72,424.32z"/>
   <path class="fil0" d="M4481.98 10709.59c0,-1583.29 1580.58,-890.38 1580.58,-169.34 0,256.35 19.35,444.79 -273.2,658.21 -141.49,103.22 -329.07,180.21 -545.54,180.88 -358.41,1.1 -761.84,-300.45 -761.84,-669.75zm677.39 874.97c353.75,0 554.74,2.04 840.31,-260.45 713.94,-656.25 -24.46,-1799.95 -670.96,-1799.95 -347.37,0 -569.64,9.03 -807.57,321.41 -177.71,233.32 -278.86,781.75 -171.1,1108.67 104.45,316.87 487.56,630.32 809.32,630.32z"/>
   <path class="fil0" d="M10211.58 9129.01c504.19,0 931.41,422.56 931.41,818.52 0,376.89 -159.7,645.89 -512.98,757.13 -577.61,181.89 -1265.59,-198.71 -1034.19,-1034.03 44.98,-162.37 79.37,-257.6 198.23,-366.43 88.41,-80.94 257.73,-175.19 417.53,-175.19zm-846.74 903.19c0,480.59 456.7,931.42 931.41,931.42 1129.99,0 1338.91,-1082.56 755.45,-1715.09 -519.89,-563.62 -1425.36,-471.85 -1608.92,325.35 -18.23,79.17 -77.94,369.83 -77.94,458.32z"/>
   <path class="fil0" d="M2986.07 6786.37c0,299.17 26.16,372.86 77.1,628.51 36.18,181.57 116.47,321.01 120.47,500.47 -66.58,172.49 -788.7,422.8 -452.18,-1581.16 22.61,-134.66 53.04,-257.01 94.85,-384.98 52.13,-159.57 85.27,-222.54 216.21,-291.83 131.81,88.26 112.9,81.65 112.9,282.25 0,294.52 -169.35,493.21 -169.35,846.74zm-536.27 366.92c0,386.42 -34.07,1072.53 564.49,1072.53 276.25,0 469.86,-180.88 331.12,-528.61 -75.45,-189.09 -201.96,-576.97 -175.01,-809.28 62.04,-534.94 90.38,-403.25 193.11,-796.67 226.3,-866.67 -913.71,-1236.29 -913.71,1062.03z"/>
   <path class="fil0" d="M3861.03 5008.21c0,-378.89 238.78,-818.51 649.17,-818.51 307.49,0 466.25,51.31 699.39,288.47 553.76,563.32 147.54,1320.33 -501.82,1320.33 -523.56,0 -846.74,-291.53 -846.74,-790.29zm-169.34 56.45c0,894.38 1125.11,1255.28 1687.07,699.21 713,-705.53 96.19,-1692.8 -663.09,-1810.12 -440.37,-68.04 -822.86,193.3 -944.06,626.35 -20.76,74.17 -20.55,149.22 -40.34,241.9 -23.57,110.38 -39.58,115.15 -39.58,242.66z"/>
   <path class="fil0" d="M11255.89 5149.34c598.65,0 273.89,1787.55 166.3,2085.57 -112.78,312.4 -335.65,373.19 -335.65,31.28 0,-352.05 342.91,-744.77 60.09,-1640.67 -53.54,-169.6 -188.53,-476.18 109.26,-476.18zm-423.37 112.9c0,272.48 417.34,612.92 151.5,1506.27 -100.63,338.16 -123.27,251.44 -123.27,638.8 0,115.17 122.63,310.47 225.79,310.47 157.59,0 309.75,19.75 461.71,-243.91 247.95,-430.19 243.91,-1303.01 243.91,-1844.71 0,-868.26 -959.64,-799.7 -959.64,-366.92z"/>
   <path class="fil0" d="M8997.92 4189.7c0,-816.58 785.98,-1072.88 1334.67,-544.38 830.7,800.14 -362.47,1814.46 -1102.58,1130.81 -152.91,-141.25 -232.09,-301.89 -232.09,-586.43zm-169.35 84.67c0,144.62 25.33,260.15 75.1,376.5 123.29,288.24 508.77,554.92 799.87,554.92 392.68,0 575.47,-19.96 868.54,-316.89 616.06,-624.17 -35.97,-1743.51 -727.42,-1743.51 -346.41,0 -597.67,11.65 -813.91,343.3 -129.65,198.87 -202.18,546.16 -202.18,785.68z"/>
   <path class="fil0" d="M3607.01 6391.22c0,-373.62 683.4,-3.04 197.58,254.02 -98.87,-52.31 -197.58,-100.78 -197.58,-254.02zm-141.12 28.23c0,488.22 639.58,588.37 694.81,46.22 45.19,-443.64 -694.81,-583.46 -694.81,-46.22z"/>
   <path class="fil0" d="M6655.27 11048.29c0,-81.73 19.06,-110.65 66.38,-159.43l30.58 -25.88c3.07,-2.66 10.88,-7.86 15.94,-12.26 283.66,23.6 303.53,253.27 197.39,369.12 -134.46,146.75 -310.29,-74.65 -310.29,-171.55zm-141.12 0c0,191.02 165.5,423.37 366.92,423.37 365.25,0 515.15,-701.19 -14.5,-775.21 -90.31,-12.61 -186.81,27.31 -248.43,88.84 -48.01,47.95 -103.99,189.11 -103.99,263z"/>
   <path class="fil0" d="M10211.58 8169.37c0,-285.86 366.92,-185.89 366.92,56.45 0,225.9 -366.92,222.12 -366.92,-56.45zm-141.12 0c0,531.37 688.51,567.27 696.57,24.24 6.31,-425.12 -696.57,-522.33 -696.57,-24.24z"/>
   <path class="fil0" d="M8207.63 5036.44c543.45,-126.61 350.54,496.41 94.8,331.77 -106.58,-68.62 -94.8,-170.96 -94.8,-331.77zm197.57 564.49c405.52,0 515.1,-762.06 -56.45,-762.06 -207.08,0 -301.26,216.1 -293.72,391.68 7.24,168.5 208.1,370.38 350.17,370.38z"/>
   <path class="fil0" d="M11792.16 8790.32c-428.92,-99.93 -175.98,-617.47 80.25,-333.28 128.69,142.73 18.31,247.61 -80.25,333.28zm-366.92 -225.8c0,223.2 142.97,388.51 320.52,412.74 433.32,59.15 515.36,-735.98 10.6,-767.03 -186.42,-11.47 -331.12,144.15 -331.12,354.29z"/>
   <path class="fil0" d="M8235.85 2439.77c0,-64.65 9.57,-32.82 28.23,-112.9 457.16,-109.44 375.6,366.92 197.57,366.92 -152.91,0 -225.8,-104.14 -225.8,-254.02zm-141.12 56.45c0,205.01 148.39,395.15 423.37,395.15 99.12,0 461.24,-312.46 162.77,-642.6 -199.5,-220.67 -586.14,-127.11 -586.14,247.45z"/>
   <path class="fil0" d="M5864.98 8987.89c0,-76.23 13.48,-77.82 28.23,-141.12 457.16,-109.45 375.6,366.92 197.57,366.92 -136.52,0 -225.8,-89.27 -225.8,-225.8zm-141.12 56.45c0,255.65 397.07,555.79 617.78,222.62 40,-60.37 90.13,-183.94 81.52,-274.2 -35.64,-373.57 -699.3,-547.59 -699.3,51.58z"/>
   <path class="fil0" d="M6231.9 5008.21c0,-344.42 494.75,-119.78 316.51,145.85 -109.1,162.6 -316.51,35.6 -316.51,-145.85zm-141.12 0c0,506.36 677.39,603.12 677.39,0 0,-388.3 -677.39,-514.09 -677.39,0z"/>
   <path class="fil0" d="M3268.32 9072.56c0,-253.45 366.92,-164.24 366.92,56.45 0,256.7 -366.92,265.02 -366.92,-56.45zm-141.13 84.68c0,361.1 632.22,601.39 686.21,-18.83 8.32,-95.53 -5.76,-152.72 -84.99,-243.53 -199.29,-228.4 -601.22,-200 -601.22,262.36z"/>
   <path class="fil0" d="M7078.64 6588.79c0,83.93 65.69,128.31 112.9,169.35 234.24,-54.57 180.17,-155.12 112.9,-282.24l-169.35 0c-6.08,11.49 -56.45,109.63 -56.45,112.89z"/>
   <path class="fil0" d="M9901.11 9975.75c98.09,185.39 88.74,151.41 254.02,112.9 24.44,-102.08 49.32,-254.02 -112.9,-254.02 -91.94,0 -108.83,80.1 -141.12,141.12z"/>
   <path class="fil0" d="M4227.95 5036.44c0,30.03 118.88,308.76 282.25,0 -76.11,-143.84 -53.54,-141.12 -225.8,-141.12 -18.86,35.64 -56.45,93.32 -56.45,141.12z"/>
   <path class="fil0" d="M4848.9 10512.02c0,131.04 -20.22,225.8 141.12,225.8 182.5,0 151.73,-401.39 -141.12,-225.8z"/>
   <path class="fil0" d="M9393.07 4105.03c-27.91,116.54 -61.81,83.87 28.22,254.02 345.62,0 167.82,-282.25 84.67,-282.25 -7.12,0 -103.86,24.72 -112.89,28.23z"/>
   <path class="fil0" d="M7389.12 7012.16c0,64.65 9.56,32.82 28.22,112.9 187.98,0 197.57,-9.59 197.57,-197.57 -61.54,-16.32 -225.79,-58.45 -225.79,84.67z"/>
   <path class="fil0" d="M5131.14 11020.06c0,180.7 329.86,137.12 197.58,-112.89 -73.93,0 -197.58,-14.65 -197.58,112.89z"/>
   <path class="fil0" d="M9647.09 4641.29c160.64,303.61 370.74,-112.89 169.35,-112.89 -123.9,0 -127.54,33.88 -169.35,112.89z"/>
   <path class="fil0" d="M10211.58 10399.12c0,88.28 50.66,79.97 112.9,112.9l112.07 -57.99c2.22,-147.76 11.69,-167.81 -112.07,-167.81 -66.07,0 -112.9,46.83 -112.9,112.9z"/>
   <path class="fil0" d="M4538.43 5459.81c0,160.54 225.79,108.82 225.79,-28.23 0,-160.54 -225.79,-108.82 -225.79,28.23z"/>
   <path class="fil0" d="M5018.24 10145.1c0,169.72 225.8,190.44 225.8,28.22 0,-166.38 -225.8,-119.12 -225.8,-28.22z"/>
   <path class="fil0" d="M7276.22 6165.42c0,150.43 225.79,150.43 225.79,0 0,-88.27 -50.65,-79.96 -112.89,-112.89 -62.25,32.93 -112.9,24.62 -112.9,112.89z"/>
   <path class="fil0" d="M10098.68 9552.38c0,88.28 50.66,79.97 112.9,112.9 242.57,-128.35 47,-225.8 0,-225.8 -66.07,0 -112.9,46.84 -112.9,112.9z"/>
   <path class="fil0" d="M4425.53 4584.84l0 84.68c241.51,127.79 315.64,-169.35 84.67,-169.35 -65.03,0 -84.67,19.64 -84.67,84.67z"/>
   <path class="fil0" d="M9957.56 4133.25c0,88.28 50.65,79.96 112.9,112.9 39.66,-26.56 93.81,-54.12 99.28,-119.03 9.88,-116.99 -212.18,-160 -212.18,6.13z"/>
   <path class="fil0" d="M4820.67 4923.54c0,91.94 80.11,108.84 141.13,141.12l89.48 -108.54c-37.74,-66.6 -29.43,-117.25 -117.71,-117.25 -54.52,0 -112.9,50.32 -112.9,84.67z"/>
   <path class="fil0" d="M7671.36 6504.12c32.94,62.24 24.63,112.9 112.9,112.9 178.32,0 84.82,-196.96 84.67,-197.57l-141.12 0c-3.13,6.3 -7.43,9.44 -9.11,19.05 -1.66,9.51 -7.54,15.18 -9.81,18.46l-24.09 32.44c-2.28,3 -9.54,9.34 -13.44,14.72z"/>
   <path class="fil0" d="M10493.83 9891.08l106.62 119.17c68.52,-39.21 119.17,-30.9 119.17,-119.17 0,-65.77 -106.58,-225.3 -225.79,0z"/>
   <path class="fil0" d="M5441.61 10512.02c0,149.54 197.58,145.92 197.58,0 0,-149.54 -197.58,-145.92 -197.58,0z"/>
   <path class="fil0" d="M9562.41 3766.33l112.08 142.67 119.99 -108.17 -64.26 -118.35c-111.45,-1.68 -167.81,-16.11 -167.81,83.85z"/>
   <path class="fil0" d="M10606.73 10286.22c77.03,145.59 65.07,145.18 197.57,56.45 -17.29,-74.22 -25.67,-82.94 -56.45,-141.12 -53.19,12.39 -46.94,5.57 -83.69,29.21 -4.73,3.04 -11.42,9.04 -15.84,12.39l-28.48 27.96c-2.92,2.79 -8.64,10.17 -13.11,15.11z"/>
   <path class="fil0" d="M7756.04 6137.2l0 141.12c66.15,15.42 61.09,30.25 103.77,15.6 108.05,-37.07 89.04,-231.56 -103.77,-156.72z"/>
   <path class="fil0" d="M4933.57 5346.91c0,119.86 101.29,99.09 169.35,84.67 0,-70.78 13.7,-169.34 -56.45,-169.34 -54.52,0 -112.9,50.32 -112.9,84.67z"/>
   <path class="fil0" d="M5498.06 10201.55c0,134.12 169.35,91.42 169.35,28.22 0,-64.64 -9.57,-32.81 -28.22,-112.89 -90.45,2.01 -141.13,-9.2 -141.13,84.67z"/>
   <path class="fil0" d="M10550.28 9608.83c64.84,43.43 56.72,53.94 169.34,56.45 25.74,-110.46 25.74,-58.89 0,-169.35 -147.92,3.3 -119.9,13.18 -169.34,112.9z"/>
   <path class="fil0" d="M10014.01 3822.78c0,119.58 169.35,119.58 169.35,0 0,-119.58 -169.35,-119.58 -169.35,0z"/>
   <path class="fil0" d="M5554.51 10935.39c0,240.12 329.42,-84.67 84.68,-84.67 -65.04,0 -84.68,19.64 -84.68,84.67z"/>
   <path class="fil0" d="M10070.46 4528.4c0,123.93 86.7,103.92 169.34,84.67 -2.5,-112.63 -13.02,-104.5 -56.44,-169.35 -35.68,18.88 -112.9,38.78 -112.9,84.68z"/>
   <path class="fil0" d="M4961.8 4725.97c65.03,0 84.67,-19.64 84.67,-84.68 0,-94.06 -86.85,-118.03 -142.94,-57.55 -48.56,52.37 2.74,142.23 58.27,142.23z"/>
   <path class="fil0" d="M7812.49 6927.49c0,94.07 86.84,118.03 142.93,57.55 48.56,-52.36 -2.74,-142.22 -58.26,-142.22 -65.04,0 -84.67,19.64 -84.67,84.67z"/>
  </g>
 </g>
</svg>
